<svg width="100%" height="100%" viewBox="0 0 600 600" version="1.1"
    xmlns="http://www.w3.org/2000/svg" xmlns:xlink="http://www.w3.org/1999/xlink"
    xml:space="preserve" xmlns:serif="http://www.serif.com/"
    style="fill-rule:evenodd;clip-rule:evenodd;stroke-linecap:round;stroke-linejoin:round;stroke-miterlimit:1.5;">
    <g transform="matrix(1,0,0,1,-1637.01,-2174.45)">
        <g id="Product" transform="matrix(1,0,0,1,1637.01,2174.45)">
            <rect x="0" y="0" width="600" height="600" style="fill:none;"/>
            <rect x="0" y="0" width="600" height="600" style="fill:rgb(27,161,228);"/>
            <path d="M600,0L600,600L0,600L0,0L600,0ZM594.5,5.5L5.5,5.5L5.5,594.5L594.5,594.5L594.5,5.5Z"/>
            <g transform="matrix(1.1104,0,0,1.1104,-33.111,-33.121)">
                <g transform="matrix(1.0818,-0.00345622,0.00345622,1.0818,9.09332,-7.38594)">
                    <rect x="51" y="68" width="434" height="434" style="fill:rgb(27,228,194);stroke:black;stroke-width:4.58px;"/>
                </g>
                <g opacity="0.6">
                    <g>
                        <g transform="matrix(1.0029,0,0,1,-0.614869,21.7012)">
                            <path d="M72.84,199.514L217.963,199.514" style="fill:none;stroke:rgb(33,197,167);stroke-width:4.95px;stroke-linecap:square;"/>
                        </g>
                        <g transform="matrix(1.0029,0,0,1,2.58948,74.2247)">
                            <path d="M68.721,199.514L212,199.514" style="fill:none;stroke:rgb(33,197,167);stroke-width:4.95px;stroke-linecap:square;"/>
                        </g>
                        <g transform="matrix(1.0029,0,0,1,2.58948,126.517)">
                            <path d="M68.811,199.514L212,199.514" style="fill:none;stroke:rgb(33,197,167);stroke-width:4.95px;stroke-linecap:square;"/>
                        </g>
                        <g transform="matrix(1.0029,0,0,1,5.36516,179.272)">
                            <path d="M65.944,199.514L212,199.514" style="fill:none;stroke:rgb(33,197,167);stroke-width:4.95px;stroke-linecap:square;"/>
                        </g>
                    </g>
                    <g transform="matrix(1,0,0,1,317.52,0)">
                        <g transform="matrix(1.0029,0,0,1,-0.614869,21.7012)">
                            <path d="M58.476,199.514L212,199.514" style="fill:none;stroke:rgb(33,197,167);stroke-width:4.95px;stroke-linecap:square;"/>
                        </g>
                        <g transform="matrix(1.0029,0,0,1,2.58948,74.2247)">
                            <path d="M55.281,199.514L207.014,199.514" style="fill:none;stroke:rgb(33,197,167);stroke-width:4.95px;stroke-linecap:square;"/>
                        </g>
                        <g transform="matrix(1.0029,0,0,1,5.36516,126.748)">
                            <path d="M52.513,199.514L204.247,199.514" style="fill:none;stroke:rgb(33,197,167);stroke-width:4.95px;stroke-linecap:square;"/>
                        </g>
                        <g transform="matrix(1.0029,0,0,1,5.36516,179.272)">
                            <path d="M52.513,199.514L204.247,199.514" style="fill:none;stroke:rgb(33,197,167);stroke-width:4.95px;stroke-linecap:square;"/>
                        </g>
                    </g>
                    <g transform="matrix(6.12323e-17,-1,1,6.12323e-17,-3.23476,282.48)">
                        <g transform="matrix(1.0029,0,0,1,-0.614869,21.7012)">
                            <path d="M64.927,199.514L212,199.514" style="fill:none;stroke:rgb(33,197,167);stroke-width:4.95px;stroke-linecap:square;"/>
                        </g>
                        <g transform="matrix(1.0029,0,0,1,2.58948,74.2247)">
                            <path d="M58.506,199.514L208.012,199.514" style="fill:none;stroke:rgb(33,197,167);stroke-width:4.95px;stroke-linecap:square;"/>
                        </g>
                        <g transform="matrix(1.0029,0,0,1,5.36516,126.748)">
                            <path d="M55.738,199.514L205.02,199.514" style="fill:none;stroke:rgb(33,197,167);stroke-width:4.95px;stroke-linecap:square;"/>
                        </g>
                        <g transform="matrix(1.0029,0,0,1,5.36516,179.272)">
                            <path d="M55.738,199.514L205.02,199.514" style="fill:none;stroke:rgb(33,197,167);stroke-width:4.95px;stroke-linecap:square;"/>
                        </g>
                    </g>
                    <g transform="matrix(6.12323e-17,-1,1,6.12323e-17,-3.23476,596.765)">
                        <g transform="matrix(1.0029,0,0,1,-0.614869,21.7012)">
                            <path d="M68.915,199.514L217.963,199.514" style="fill:none;stroke:rgb(33,197,167);stroke-width:4.95px;stroke-linecap:square;"/>
                        </g>
                        <g transform="matrix(1.0029,0,0,1,2.58948,74.2247)">
                            <path d="M64.927,199.514L212,199.514" style="fill:none;stroke:rgb(33,197,167);stroke-width:4.95px;stroke-linecap:square;"/>
                        </g>
                        <g transform="matrix(1.0029,0,0,1,5.36516,126.748)">
                            <path d="M64.927,199.514L212,199.514" style="fill:none;stroke:rgb(33,197,167);stroke-width:4.95px;stroke-linecap:square;"/>
                        </g>
                        <g transform="matrix(1.0029,0,0,1,5.36516,179.272)">
                            <path d="M64.927,199.514L212,199.514" style="fill:none;stroke:rgb(33,197,167);stroke-width:4.95px;stroke-linecap:square;"/>
                        </g>
                    </g>
                    <rect x="217.98" y="221.215" width="157.57" height="157.57" style="fill:none;stroke:rgb(33,197,167);stroke-width:4.95px;stroke-linecap:square;"/>
                </g>
            </g>
            <g id="Planned-Icon" serif:id="Planned Icon" transform="matrix(1.80931,0,0,0.908112,47.2146,38.0538)">
                <g>
                    <g transform="matrix(0.385472,0,0,0.771593,-942.685,-1717.69)">
                        <rect x="2519" y="2338" width="578" height="524" style="fill:white;"/>
                        <path d="M3097,2338L3097,2862L2519,2862L2519,2338L3097,2338ZM3085.53,2349.42C3085.53,2349.42 2530.47,2349.42 2530.47,2349.42C2530.47,2425.03 2530.47,2850.58 2530.47,2850.58L3085.53,2850.58L3085.53,2349.42Z"/>
                    </g>
                    <g transform="matrix(0.382166,0,0,0.783129,-932.446,-1741.53)">
                        <path d="M2514,2439.23L3097,2439.23L3097,2335L2514,2334L2514,2439.23Z" style="fill:rgb(27,161,228);"/>
                        <path d="M2514,2439.23L2514,2334L3097,2335L3097,2439.23L2514,2439.23ZM2525.57,2427.98L3085.43,2427.98C3085.43,2427.98 3085.43,2346.23 3085.43,2346.23L2525.57,2345.27L2525.57,2427.98Z"/>
                    </g>
                </g>
                <g>
                    <g transform="matrix(0.463752,0,0,0.978721,-1145.67,-2239.86)">
                        <rect x="2562" y="2493" width="89" height="75.5" style="fill:rgb(27,228,194);"/>
                        <path d="M2651,2493L2651,2568.5L2562,2568.5L2562,2493L2651,2493ZM2641.47,2502L2571.53,2502L2571.53,2559.5L2641.47,2559.5L2641.47,2502Z"/>
                    </g>
                    <g transform="matrix(0.463752,0,0,0.978721,-1145.67,-2148.67)">
                        <rect x="2562" y="2493" width="89" height="75.5" style="fill:rgb(27,228,194);"/>
                        <path d="M2651,2493L2651,2568.5L2562,2568.5L2562,2493L2651,2493ZM2641.47,2502L2571.53,2502L2571.53,2559.5L2641.47,2559.5L2641.47,2502Z"/>
                    </g>
                    <g transform="matrix(0.463752,0,0,0.978721,-1145.67,-2057.48)">
                        <rect x="2562" y="2493" width="89" height="75.5" style="fill:rgb(27,228,194);"/>
                        <path d="M2651,2493L2651,2568.5L2562,2568.5L2562,2493L2651,2493ZM2641.47,2502L2571.53,2502L2571.53,2559.5L2641.47,2559.5L2641.47,2502Z"/>
                    </g>
                    <g transform="matrix(0.463752,0,0,0.978721,-1094.56,-2239.86)">
                        <rect x="2562" y="2493" width="89" height="75.5" style="fill:rgb(27,228,194);"/>
                        <path d="M2651,2493L2651,2568.5L2562,2568.5L2562,2493L2651,2493ZM2641.47,2502L2571.53,2502L2571.53,2559.5L2641.47,2559.5L2641.47,2502Z"/>
                    </g>
                    <g transform="matrix(0.463752,0,0,0.978721,-1094.56,-2148.67)">
                        <rect x="2562" y="2493" width="89" height="75.5" style="fill:rgb(27,228,194);"/>
                        <path d="M2651,2493L2651,2568.5L2562,2568.5L2562,2493L2651,2493ZM2641.47,2502L2571.53,2502L2571.53,2559.5L2641.47,2559.5L2641.47,2502Z"/>
                    </g>
                    <g transform="matrix(0.463752,0,0,0.978721,-1094.56,-2057.48)">
                        <rect x="2562" y="2493" width="89" height="75.5" style="fill:rgb(27,228,194);"/>
                        <path d="M2651,2493L2651,2568.5L2562,2568.5L2562,2493L2651,2493ZM2641.47,2502L2571.53,2502L2571.53,2559.5L2641.47,2559.5L2641.47,2502Z"/>
                    </g>
                    <g transform="matrix(0.463752,0,0,0.978721,-1043.44,-2239.86)">
                        <rect x="2562" y="2493" width="89" height="75.5" style="fill:rgb(27,228,194);"/>
                        <path d="M2651,2493L2651,2568.5L2562,2568.5L2562,2493L2651,2493ZM2641.47,2502L2571.53,2502L2571.53,2559.5L2641.47,2559.5L2641.47,2502Z"/>
                    </g>
                    <g transform="matrix(0.463752,0,0,0.978721,-992.331,-2239.86)">
                        <rect x="2562" y="2493" width="89" height="75.5" style="fill:rgb(27,228,194);"/>
                        <path d="M2651,2493L2651,2568.5L2562,2568.5L2562,2493L2651,2493ZM2641.47,2502L2571.53,2502L2571.53,2559.5L2641.47,2559.5L2641.47,2502Z"/>
                    </g>
                </g>
                <g transform="matrix(0.139845,0,0,0.278625,156.564,308.649)">
                    <g>
                        <circle cx="256" cy="256" r="248" style="fill:white;stroke:black;stroke-width:39.52px;stroke-linecap:butt;stroke-miterlimit:2;"/>
                        <circle cx="256" cy="256" r="206.942" style="fill:white;"/>
                        <circle cx="256" cy="256" r="25.633" style="fill:white;"/>
                        <g>
                            <g transform="matrix(1.3901,0,0,2.73278,-3916.22,-7167.16)">
                                <path d="M2852.51,2716.34L2881,2716.34" style="fill:none;stroke:black;stroke-width:18.23px;"/>
                            </g>
                            <g transform="matrix(8.51192e-17,-1.3901,2.73278,1.67335e-16,-7167.16,4428.22)">
                                <path d="M2852.51,2716.34L2881,2716.34" style="fill:none;stroke:black;stroke-width:18.23px;"/>
                            </g>
                            <g transform="matrix(1.3901,0,0,2.73278,-3541.94,-7167.16)">
                                <path d="M2852.51,2716.34L2881,2716.34" style="fill:none;stroke:black;stroke-width:18.23px;"/>
                            </g>
                            <g transform="matrix(8.51192e-17,-1.3901,2.73278,1.67335e-16,-7167.16,4053.94)">
                                <path d="M2852.51,2716.34L2881,2716.34" style="fill:none;stroke:black;stroke-width:18.23px;"/>
                            </g>
                        </g>
                        <g transform="matrix(2.73278,0,0,2.73278,-7787.28,-7168.16)">
                            <path d="M2972.4,2688.55L2943.26,2716.34L2897.14,2676.32" style="fill:none;stroke:black;stroke-width:14.46px;"/>
                        </g>
                    </g>
                </g>
            </g>
        </g>
    </g>
</svg>